<svg width="157" height="57" viewBox="0 0 157 57" fill="none" xmlns="http://www.w3.org/2000/svg">
<rect x="111" y="12" width="17" height="25" rx="8.5" fill="#FE792D"/>
<g filter="url(#filter0_d_403_197)">
<path d="M115.714 37.4304L116.857 34.621L118.988 37.7425M114 35.5575L114.571 34.1528L115 32.2798L113.286 32.7481L112.429 33.2163M111.286 31.6555L112.429 30.8751L114.429 29.0022L112.857 29.1583L110.429 29.4705M110 27.2854L113.714 25.8807L110 24.7881M110.429 21.1984L111.286 21.8227L114.429 22.447L113.571 20.8862L111.429 19.0133M112.714 16.8282L115 18.0768V17.1404L114.143 15.4235M115.714 13.608L116.571 16.2039L117.571 17.1404L118 15.1114L119.157 11M120.338 11.3068L120.143 15.1114V17.1404L123.143 14.1749M124.286 15.1114L123.286 18.0768L123 20.2619L124.571 19.7937L126.571 17.7647M128.714 20.8862L125.857 22.447L128.714 22.7591M129 25.8807L127.143 25.7246L125.143 26.0368L127.286 27.5975L128.714 28.3779M128.286 30.0948L124.857 29.9387L127.286 32.2798M126.429 34.1528L124.429 32.7481L121.857 31.6555L123.429 34.9332L124.286 36.1818M122.286 37.7425L120.429 35.0892L120.338 38" stroke="#B91836"/>
</g>
<g filter="url(#filter1_d_403_197)">
<path d="M118.278 10.9565C115.942 12.1739 111.543 15.6739 110.169 21.6087C110.169 21.6087 109.789 23.2826 110.169 26.7826C110.398 28.8979 113.33 35.7609 118.416 37.587L119.79 42L120.89 37.587C125.701 34.5435 129 29.9783 129 24.3478C129 20.8291 127.488 15.6739 120.753 10.9565L119.378 7L118.278 10.9565Z" stroke="#670C1D" stroke-width="3" shape-rendering="crispEdges"/>
</g>
<g filter="url(#filter2_f_403_197)">
<path d="M118.997 31C120.773 28.8333 120.773 26.6667 120.995 24.2795C121.045 23.7406 120.746 20.0119 118.997 18C117.516 20.2945 117.222 21.8033 117 24.1247C117 25.3628 117.175 28.8179 118.997 31Z" fill="black"/>
<path d="M118.997 31C120.773 28.8333 120.773 26.6667 120.995 24.2795C121.045 23.7406 120.746 20.0119 118.997 18C117.516 20.2945 117.222 21.8033 117 24.1247C117 25.3628 117.175 28.8179 118.997 31Z" stroke="black" stroke-width="2"/>
</g>
<g filter="url(#filter3_f_403_197)">
<path d="M117 21C117 19.8954 117.895 19 119 19C120.105 19 121 19.8954 121 21V28C121 29.1046 120.105 30 119 30C117.895 30 117 29.1046 117 28V21Z" fill="black"/>
</g>
<g filter="url(#filter4_d_403_197)">
<path d="M15.0718 27.8399L14.9118 27.1765C14.1196 23.8976 13.4873 21.061 13.015 18.6667H12.0781C10.9964 22.7386 10.128 26.0251 9.47285 28.5262C12.2457 28.6177 14.112 28.3889 15.0718 27.8399ZM8.39877 32.7582C8.12454 33.841 7.98742 34.4357 7.98742 34.5425V36.0523C9.26718 37.6689 10.5926 40.4292 10.5926 40.6275L2 38.8431L12.1695 0C12.8094 1.09804 14.2948 6.77125 16.6258 17.0196C18.9568 27.2527 23.0093 40.1394 25.0356 44.4706L21.562 43.3268L17.5399 42.3889L13.8834 41.5425C13.1521 41.5425 14.0663 41.1765 14.6833 38.2255C15.6279 36.1057 16.1002 34.5425 16.1002 33.536V33.0556C16.1002 32.7658 16.024 32.2168 15.8716 31.4085C12.398 31.8508 9.90705 32.3007 8.39877 32.7582Z" fill="url(#paint0_linear_403_197)"/>
<path d="M23.8701 34.5654C23.8853 34.5349 23.893 34.5044 23.893 34.4739V34.1765H23.8244L24.19 10.3856C24.19 9.97386 22.3618 11.4303 20.3508 9.63072L24.19 8.80719L32.6227 6.74837C36.3706 6.74837 38.3359 9.22659 38.3359 12.1699V13.6797C38.3359 16.3028 36.4315 18.6133 32.6227 20.6111L44.0491 47.719L43.4549 48.0163C38.3968 45.0272 35.784 42.8235 35.6164 41.4052L28.4864 21.5262V35.6863C28.4864 36.4031 28.3111 37.3333 28.5092 38.4314C28.3111 38.8126 28.8748 38.9499 28.8748 39.1634C29.0729 39.1634 28.7834 39.3922 28.7834 39.5752L28.4864 40.3301C24.4338 37.9205 22.4761 36.4107 22.4761 36.2124C23.5425 35.5109 23.7482 34.8094 23.8701 34.5654ZM28.4864 10.3856V17.8889H31.4115C33.0112 17.0959 33.811 15.7996 33.811 14V12.7876C33.811 11.8116 33.5368 9.88998 32.3485 9.26471L28.4864 10.3856Z" fill="url(#paint1_linear_403_197)"/>
<path d="M46.7457 32.3464V37.2876L48.2083 41.268C44.7956 40.0022 42.4265 39.232 41.1011 38.9575C40.8116 38.4848 40.9183 37.5697 41.421 36.2124C41.939 34.8399 42.198 33.9477 42.198 33.536V27.2451C42.198 25.2625 42.1447 19.4749 42.038 9.88235C42.1447 9.01307 41.4439 8.4793 39.9356 8.28105L37.2847 6.22222C40.286 6.16122 45.8849 4.35403 48.9167 3.95752L49.4652 7.59477C48.5663 7.59477 47.6598 8.85295 46.7457 11.3693V22.3954C47.4313 20.0773 48.3454 17.8203 49.488 15.6242C50.1584 13.8094 50.8973 11.8115 51.7048 9.63072C52.177 8.76144 51.6971 8.24292 50.265 8.07516V3.95752C53.2816 3.89652 56.6943 1.44118 60.0003 1.39543L60.206 7.89216C59.3071 7.89216 57.8674 9.27996 55.8868 12.0556L51.6819 21.6863C53.2511 25.0262 56.0239 31.7135 60.0003 41.7484C60.2288 42.6024 61.1429 44.2723 62.7426 44.4706L63.4282 46.4837C60.4574 46.5599 56.5343 42.7092 52.1161 38.9575L51.202 37.8137C52.0856 37.8137 52.139 36.1057 51.362 32.6896L48.9167 26.7647L46.7457 32.3464Z" fill="url(#paint2_linear_403_197)"/>
<path d="M67.5874 26.6732V43.4869L71.3353 49C66.262 46.6209 63.1083 44.5926 61.8742 42.915C61.6 42.4728 61.699 41.6111 62.1713 40.3301C62.6588 39.049 62.9026 38.2179 62.9026 37.8366V29.6699C62.9026 27.8094 62.8493 21.6939 62.7426 11.3235C62.8493 10.5153 62.1942 10.0196 60.7773 9.8366V1.39543C63.5806 1.33443 66.5362 0.846409 69.2785 0.846409L69.6899 8.76144C68.8519 8.76144 68.1511 10.3628 67.5874 13.5654V22.7614H74.3061V11.6895L70.3755 0.480395H76.7742C80.2479 1.46405 83.6986 1.46405 84.6356 1.94445C84.9098 2.38671 80.1869 8.9902 79.6994 10.2712C79.2271 11.5523 78.991 12.3834 78.991 12.7647V21.1601C78.991 23.0207 79.0443 28.4499 79.1509 37.4477C79.0443 38.256 79.6994 38.7516 81.1163 38.9347V40.0098C78.313 40.0708 75.4869 40.2767 72.6379 40.6275L72.2037 39.5523C73.0416 39.5523 73.7424 37.951 74.3061 34.7484V26.6275C72.0666 26.4445 69.827 26.4597 67.5874 26.6732Z" fill="url(#paint3_linear_403_197)"/>
<path d="M97.1132 41.1307C89.587 43.2506 84.4451 45.378 81.6876 47.5131L81.1848 46.4837C83.2263 43.7538 84.2471 41.695 84.2471 40.3072V39.7811C84.2471 39.6285 84.2318 39.5065 84.2014 39.415L84.2471 26.902V10.9575L85.7325 1.94445L92.1998 3.4085C92.9006 3.5 97.1132 5.23857 97.1132 5.78759V12.4902L97.5931 13.5196L96.6104 14.0686C95.0869 11.659 93.0606 10.4543 90.5316 10.4543H90.0288C89.3432 10.5458 89.0004 10.8813 89.0004 11.4608C89.0004 16.6155 89.069 20.0468 89.2061 21.7549H92.1998L96.062 19.0784L96.6104 20.1079V26.5588C96.6104 27.2451 96.2676 27.5882 95.582 27.5882L92.1998 25.8954H89.2061C89.069 29.7843 89.0004 32.4989 89.0004 34.0392C89.0004 35.5795 89.1604 37.2113 89.4804 38.9347C92.7712 38.9347 95.3154 37.1275 97.1132 33.5131V41.1307Z" fill="url(#paint4_linear_403_197)"/>
<path d="M98.7129 43.4869C98.4386 43.0447 98.7662 37.4782 99.2385 36.3497C99.726 35.2211 99.9698 34.4662 99.9698 34.085V28.2059C99.9698 26.3453 100.076 22.3954 99.9698 11.8726C100.076 11.0643 99.01 10.4085 97.5931 10.2255V5.05556C100.396 4.99456 104.639 5.83334 107.488 5.78759L106.757 7.98366C105.919 7.98366 105.218 9.27996 104.655 11.8726V35.1601L106.003 38.8889L98.7129 43.4869Z" fill="url(#paint5_linear_403_197)"/>
<path d="M137.471 16.3791L136.329 41.6797L138.02 43.4869C132.946 41.1079 129.381 45.0272 128.147 43.3497C129.427 42.6863 131.583 40.6961 132.055 39.415C132.543 38.134 132.786 37.3028 132.786 36.9216V28.1373C132.786 26.2767 134.47 24.439 134.363 14.0686C134.47 13.2604 134.203 10.0196 132.786 9.8366L132.055 7.8464C136.329 9.67647 139.848 7.61765 140.579 8.89869L140.168 10.7745L141.128 14.6177L144.19 22.0065V10.7745L142.087 8.89869L146.612 9.8366C147.206 9.8366 149.217 10.5 150.452 10.317C150.452 12.3072 150.071 11.7582 149.583 13.0392C149.111 14.3203 148.875 18.0338 148.875 18.415V20.2451C148.875 21.8312 148.898 24.7669 148.943 29.0523C148.989 33.3224 148.859 34.3061 148.875 35.0229C148.768 35.8312 149.583 33.7647 151 33.9477V38.6373C148.197 38.6983 144.936 41.329 142.087 41.6797V38.6373C142.925 38.6373 143.626 37.036 144.19 33.8333V31.9118C142.179 26.6351 139.939 21.4575 137.471 16.3791Z" fill="url(#paint6_linear_403_197)"/>
</g>
<defs>
<filter id="filter0_d_403_197" x="104.823" y="7.86456" width="29.2188" height="37.1647" filterUnits="userSpaceOnUse" color-interpolation-filters="sRGB">
<feFlood flood-opacity="0" result="BackgroundImageFix"/>
<feColorMatrix in="SourceAlpha" type="matrix" values="0 0 0 0 0 0 0 0 0 0 0 0 0 0 0 0 0 0 127 0" result="hardAlpha"/>
<feOffset dy="2"/>
<feGaussianBlur stdDeviation="2.5"/>
<feComposite in2="hardAlpha" operator="out"/>
<feColorMatrix type="matrix" values="0 0 0 0 0 0 0 0 0 0 0 0 0 0 0 0 0 0 0.25 0"/>
<feBlend mode="normal" in2="BackgroundImageFix" result="effect1_dropShadow_403_197"/>
<feBlend mode="normal" in="SourceGraphic" in2="effect1_dropShadow_403_197" result="shape"/>
</filter>
<filter id="filter1_d_403_197" x="104.5" y="1.9711" width="30" height="53.5884" filterUnits="userSpaceOnUse" color-interpolation-filters="sRGB">
<feFlood flood-opacity="0" result="BackgroundImageFix"/>
<feColorMatrix in="SourceAlpha" type="matrix" values="0 0 0 0 0 0 0 0 0 0 0 0 0 0 0 0 0 0 127 0" result="hardAlpha"/>
<feOffset dy="4"/>
<feGaussianBlur stdDeviation="2"/>
<feComposite in2="hardAlpha" operator="out"/>
<feColorMatrix type="matrix" values="0 0 0 0 0 0 0 0 0 0 0 0 0 0 0 0 0 0 0.25 0"/>
<feBlend mode="normal" in2="BackgroundImageFix" result="effect1_dropShadow_403_197"/>
<feBlend mode="normal" in="SourceGraphic" in2="effect1_dropShadow_403_197" result="shape"/>
</filter>
<filter id="filter2_f_403_197" x="115.6" y="15.9393" width="6.79988" height="17.0294" filterUnits="userSpaceOnUse" color-interpolation-filters="sRGB">
<feFlood flood-opacity="0" result="BackgroundImageFix"/>
<feBlend mode="normal" in="SourceGraphic" in2="BackgroundImageFix" result="shape"/>
<feGaussianBlur stdDeviation="0.2" result="effect1_foregroundBlur_403_197"/>
</filter>
<filter id="filter3_f_403_197" x="116.6" y="18.6" width="4.8" height="11.8" filterUnits="userSpaceOnUse" color-interpolation-filters="sRGB">
<feFlood flood-opacity="0" result="BackgroundImageFix"/>
<feBlend mode="normal" in="SourceGraphic" in2="BackgroundImageFix" result="shape"/>
<feGaussianBlur stdDeviation="0.2" result="effect1_foregroundBlur_403_197"/>
</filter>
<filter id="filter4_d_403_197" x="0.0999999" y="0" width="156.8" height="56.9" filterUnits="userSpaceOnUse" color-interpolation-filters="sRGB">
<feFlood flood-opacity="0" result="BackgroundImageFix"/>
<feColorMatrix in="SourceAlpha" type="matrix" values="0 0 0 0 0 0 0 0 0 0 0 0 0 0 0 0 0 0 127 0" result="hardAlpha"/>
<feOffset dx="2" dy="4"/>
<feGaussianBlur stdDeviation="1.95"/>
<feComposite in2="hardAlpha" operator="out"/>
<feColorMatrix type="matrix" values="0 0 0 0 0 0 0 0 0 0 0 0 0 0 0 0 0 0 0.5 0"/>
<feBlend mode="normal" in2="BackgroundImageFix" result="effect1_dropShadow_403_197"/>
<feBlend mode="normal" in="SourceGraphic" in2="effect1_dropShadow_403_197" result="shape"/>
</filter>
<linearGradient id="paint0_linear_403_197" x1="-1143.91" y1="16.7222" x2="-1143.91" y2="88.7582" gradientUnits="userSpaceOnUse">
<stop stop-color="#670C1D"/>
<stop offset="1" stop-color="#FE792D"/>
</linearGradient>
<linearGradient id="paint1_linear_403_197" x1="-1143.91" y1="16.7222" x2="-1143.91" y2="88.7582" gradientUnits="userSpaceOnUse">
<stop stop-color="#670C1D"/>
<stop offset="1" stop-color="#FE792D"/>
</linearGradient>
<linearGradient id="paint2_linear_403_197" x1="-1143.91" y1="16.7222" x2="-1143.91" y2="88.7582" gradientUnits="userSpaceOnUse">
<stop stop-color="#670C1D"/>
<stop offset="1" stop-color="#FE792D"/>
</linearGradient>
<linearGradient id="paint3_linear_403_197" x1="-1143.91" y1="16.7222" x2="-1143.91" y2="88.7582" gradientUnits="userSpaceOnUse">
<stop stop-color="#670C1D"/>
<stop offset="1" stop-color="#FE792D"/>
</linearGradient>
<linearGradient id="paint4_linear_403_197" x1="-1143.91" y1="16.7222" x2="-1143.91" y2="88.7582" gradientUnits="userSpaceOnUse">
<stop stop-color="#670C1D"/>
<stop offset="1" stop-color="#FE792D"/>
</linearGradient>
<linearGradient id="paint5_linear_403_197" x1="-1143.91" y1="16.7222" x2="-1143.91" y2="88.7582" gradientUnits="userSpaceOnUse">
<stop stop-color="#670C1D"/>
<stop offset="1" stop-color="#FE792D"/>
</linearGradient>
<linearGradient id="paint6_linear_403_197" x1="-1143.91" y1="16.7222" x2="-1143.91" y2="88.7582" gradientUnits="userSpaceOnUse">
<stop stop-color="#670C1D"/>
<stop offset="1" stop-color="#FE792D"/>
</linearGradient>
</defs>
</svg>
